<svg version="1.1" id="Layer_1" xmlns="http://www.w3.org/2000/svg" xmlns:xlink="http://www.w3.org/1999/xlink" x="0px" y="0px"
	 width="100%" viewBox="0 0 6447 5944" enable-background="new 0 0 6447 5944" xml:space="preserve">
<path fill="#784691" opacity="1.000000" stroke="none" 
	d="
M2576.000000,4.000034 
	C3867.743896,4.000000 5159.487793,4.000000 6451.615723,4.000000 
	C6451.615723,1985.333252 6451.615723,3966.666748 6451.615723,5948.000000 
	C6446.615723,5948.000000 6441.283203,5948.000000 6433.677246,5946.592773 
	C6427.503906,5936.733887 6424.314453,5927.857910 6419.568848,5919.911133 
	C6406.599121,5898.191895 6392.948242,5876.879395 6379.613281,5855.376953 
	C6358.910156,5821.993164 6338.230469,5788.594727 6317.567383,5755.187012 
	C6292.350586,5714.416504 6267.182129,5673.616211 6241.951660,5632.854492 
	C6225.482910,5606.247070 6208.924805,5579.695312 6192.437012,5553.100098 
	C6167.528809,5512.920898 6142.654785,5472.720703 6117.751953,5432.538086 
	C6098.111328,5400.845703 6078.439941,5369.172852 6058.799316,5337.480469 
	C6037.404785,5302.958496 6016.040039,5268.417480 5994.642578,5233.896973 
	C5974.648438,5201.640625 5954.608887,5169.411621 5934.625000,5137.148438 
	C5914.291992,5104.319824 5894.043945,5071.437988 5873.682129,5038.627930 
	C5852.967285,5005.249023 5832.041504,4972.000488 5811.420898,4938.563477 
	C5787.656250,4900.028809 5764.241699,4861.278809 5740.460449,4822.754395 
	C5710.733398,4774.597656 5680.815918,4726.558594 5650.916504,4678.508301 
	C5642.474609,4664.940918 5633.931152,4651.431641 5625.156250,4638.078613 
	C5623.085938,4634.927734 5619.892090,4632.515625 5617.435547,4629.990723 
	C5610.789551,4632.016602 5605.127441,4633.742676 5599.813477,4634.146973 
	C5625.038574,4597.502930 5649.915527,4562.180664 5674.483398,4527.296875 
	C5669.958984,4518.301758 5662.340332,4514.961426 5656.004883,4510.369629 
	C5371.437988,4304.122559 5086.805664,4097.965820 4802.222168,3891.742432 
	C4795.819336,3887.102539 4789.884766,3881.816650 4783.675781,3875.286133 
	C4782.375977,3860.629639 4775.210449,3850.006592 4768.721680,3839.211670 
	C4756.376465,3818.674561 4743.661621,3798.358643 4731.055664,3777.978760 
	C4709.345703,3742.880371 4687.611816,3707.796875 4665.868652,3672.718994 
	C4646.229492,3641.035889 4626.550293,3609.377686 4606.914062,3577.692627 
	C4585.525391,3543.178711 4564.181152,3508.636475 4542.789062,3474.124756 
	C4522.799316,3441.875732 4502.754395,3409.660400 4482.765625,3377.410889 
	C4461.725098,3343.464355 4440.726562,3309.491699 4419.701660,3275.535156 
	C4399.027344,3242.144775 4378.312988,3208.779297 4357.671387,3175.368652 
	C4333.531250,3136.295410 4309.476562,3097.168945 4285.336914,3058.095459 
	C4263.995605,3023.552002 4242.604980,2989.038818 4221.203613,2954.531982 
	C4200.854492,2921.722168 4180.465332,2888.936768 4160.088867,2856.143555 
	C4139.712402,2823.350098 4119.305664,2790.575684 4098.957520,2757.764893 
	C4077.556885,2723.258057 4056.227295,2688.707520 4034.834473,2654.195557 
	C4014.844482,2621.946533 3994.768555,2589.750977 3974.810303,2557.482178 
	C3948.899658,2515.589844 3923.093994,2473.633057 3897.193848,2431.734375 
	C3881.094482,2405.690186 3864.873291,2379.721191 3848.762695,2353.683838 
	C3824.946289,2315.192139 3801.194824,2276.660400 3777.385742,2238.164307 
	C3756.027588,2203.630859 3734.635986,2169.118164 3713.246582,2134.604248 
	C3693.610596,2102.919189 3673.990967,2071.224121 3654.303223,2039.571533 
	C3633.559570,2006.221313 3612.700439,1972.942993 3591.971191,1939.583740 
	C3569.486816,1903.399536 3546.867676,1867.295776 3524.785889,1830.866821 
	C3517.246582,1818.428589 3507.647461,1806.997681 3505.731934,1792.129517 
	C3541.478271,1793.565186 3575.133789,1798.102417 3608.719482,1803.366577 
	C3718.233643,1820.530640 3822.371094,1854.107056 3920.625244,1905.552856 
	C4018.848877,1956.982422 4105.825684,2023.677002 4184.929688,2100.992920 
	C4255.194336,2169.668945 4317.778809,2244.928223 4376.044922,2323.892822 
	C4380.346191,2329.722412 4384.784180,2335.451416 4389.387695,2341.529297 
	C4398.045898,2338.163086 4403.953125,2332.706299 4410.278320,2328.000732 
	C4742.349121,2080.971680 5074.397949,1833.914307 5406.445312,1586.855103 
	C5480.768555,1531.554932 5555.109863,1476.279419 5629.332031,1420.843872 
	C5634.990723,1416.617554 5642.405273,1413.848755 5644.786621,1405.582153 
	C5642.444824,1401.666504 5640.157227,1397.620728 5637.664551,1393.706177 
	C5584.276367,1309.866333 5526.638672,1229.062622 5464.463379,1151.507935 
	C5318.443359,969.368958 5151.045410,809.950806 4959.235840,676.528992 
	C4712.916504,505.190155 4442.513184,387.724213 4151.713867,316.023041 
	C4042.293213,289.043610 3931.606934,268.966156 3819.761230,255.006042 
	C3756.916504,247.162033 3693.938965,240.711227 3630.759033,236.951385 
	C3570.896729,233.388962 3510.928711,230.866058 3450.972656,229.769928 
	C3308.198975,227.159729 3165.858154,234.296387 3023.994873,251.052948 
	C2933.954590,261.688263 2844.556641,276.023010 2755.843750,294.706696 
	C2751.984131,295.519592 2747.942139,295.466644 2743.948486,294.273682 
	C2743.994385,281.487183 2738.498779,272.325714 2732.831055,263.257812 
	C2718.019775,239.562393 2703.063477,215.957291 2688.336670,192.209763 
	C2654.677490,137.933350 2621.000977,83.666534 2587.654053,29.198425 
	C2582.854736,21.359022 2579.840332,12.426618 2576.000000,4.000034 
z"/>
<path fill="#5B356E" opacity="1.000000" stroke="none" 
	d="
M2560.000000,5948.000000 
	C2269.249756,5948.000000 1978.499512,5948.000000 1685.578613,5946.599609 
	C1678.848511,5936.358398 1674.812378,5927.197754 1669.637939,5918.732910 
	C1648.455811,5884.078613 1626.932861,5849.632324 1605.523315,5815.117188 
	C1585.166870,5782.299805 1564.781494,5749.500000 1544.435181,5716.676270 
	C1523.387451,5682.720703 1502.363647,5648.750488 1481.344604,5614.777344 
	C1456.121582,5574.008301 1430.929932,5533.219727 1405.695312,5492.458008 
	C1389.223267,5465.851074 1372.690063,5439.282715 1356.200073,5412.687012 
	C1331.288086,5372.508301 1306.375122,5332.329590 1281.489502,5292.134277 
	C1261.512085,5259.866699 1241.596680,5227.560547 1221.614136,5195.295898 
	C1201.280518,5162.464355 1180.887207,5129.668945 1160.541138,5096.845215 
	C1139.493774,5062.889648 1118.485596,5028.909668 1097.434082,4994.956543 
	C1077.084351,4962.134766 1056.683105,4929.344727 1036.337158,4896.520508 
	C1015.289856,4862.564941 994.276733,4828.588379 973.256958,4794.615234 
	C948.032593,4753.847168 922.829468,4713.065918 897.594421,4672.304199 
	C877.967834,4640.601562 858.299011,4608.924805 838.663391,4577.227539 
	C817.625244,4543.266602 796.617371,4509.286133 775.570068,4475.330566 
	C755.224060,4442.506348 734.819153,4409.719238 714.486328,4376.886719 
	C694.505005,4344.621582 674.594055,4312.312500 654.630493,4280.036133 
	C632.565002,4244.361328 610.507080,4208.682617 588.385620,4173.042480 
	C568.019165,4140.229492 547.548889,4107.480469 527.168518,4074.676514 
	C506.789154,4041.873779 486.430664,4009.057617 466.123871,3976.209961 
	C440.915070,3935.433105 415.785858,3894.607178 390.590149,3853.822266 
	C370.294037,3820.968506 349.964569,3788.135254 329.623291,3755.309326 
	C309.281525,3722.482666 288.895935,3689.683350 268.549866,3656.859375 
	C247.502441,3622.903809 226.493301,3588.924561 205.441956,3554.971436 
	C185.092041,3522.149658 164.692352,3489.358887 144.346268,3456.534668 
	C123.298927,3422.579102 102.250702,3388.624268 81.274498,3354.624756 
	C59.598816,3319.491699 37.970943,3284.328857 16.427265,3249.114746 
	C13.456734,3244.259521 9.616937,3241.030029 4.000000,3240.000000 
	C4.000000,2779.916504 4.000000,2319.832764 5.267892,1858.326904 
	C13.491187,1860.451294 16.720554,1867.187744 20.573305,1873.369995 
	C31.486490,1890.882080 42.365078,1908.415771 53.248806,1925.946167 
	C73.261108,1958.180054 93.283798,1990.407471 113.271629,2022.656494 
	C134.311356,2056.602295 155.312088,2090.572510 176.336243,2124.528076 
	C197.010223,2157.917480 217.709091,2191.291504 238.366165,2224.691406 
	C263.575317,2265.451416 288.729034,2306.245850 313.951965,2346.997559 
	C330.415894,2373.597900 346.980560,2400.135986 363.463135,2426.724854 
	C388.363861,2466.893799 413.221436,2507.089844 438.118286,2547.261230 
	C457.754608,2578.945068 477.464752,2610.583008 497.064850,2642.289062 
	C518.415039,2676.826172 539.805542,2711.339844 560.872009,2746.049561 
	C565.310608,2753.362793 570.753174,2758.448975 579.484741,2761.651855 
	C578.671875,2772.859619 577.597778,2782.440430 575.312439,2792.473633 
	C567.099854,2800.042480 567.309814,2801.993164 576.006226,2809.850586 
	C575.221924,2835.657959 573.783752,2859.614502 573.151917,2883.592285 
	C569.285217,3030.329834 573.554749,3176.720703 591.030823,3322.623047 
	C600.939148,3405.344482 614.073547,3487.480469 631.116699,3569.025879 
	C675.562622,3781.684326 743.303894,3986.610352 837.321594,4182.472656 
	C1075.787842,4679.256836 1431.169678,5069.660645 1904.731445,5352.027832 
	C1923.037109,5362.942871 1941.588623,5373.455566 1960.196045,5383.850586 
	C1978.802002,5394.244629 1997.533081,5404.423828 2016.374023,5414.385254 
	C2034.624146,5424.034180 2052.993652,5433.468262 2071.476074,5442.664551 
	C2090.554199,5452.158203 2110.155029,5460.646484 2128.929199,5470.692383 
	C2147.549072,5480.654297 2167.144531,5488.469238 2186.332275,5496.972656 
	C2227.660400,5515.287598 2270.033691,5531.240723 2311.945312,5548.244629 
	C2317.434326,5550.471680 2322.724365,5553.189453 2328.191895,5557.158203 
	C2330.242676,5563.501465 2331.581787,5568.747559 2334.274902,5573.168945 
	C2351.205322,5600.966797 2368.390869,5628.610840 2385.580811,5656.250000 
	C2406.280029,5689.533203 2427.141357,5722.715332 2447.800293,5756.023438 
	C2481.412598,5810.216797 2514.911377,5864.479492 2548.474854,5918.703125 
	C2554.093018,5927.779297 2559.729736,5936.828613 2560.000000,5948.000000 
z"/>
<path fill="#553166" opacity="1.000000" stroke="none" 
	d="
M4.000000,3241.874512 
	C9.616937,3241.030029 13.456734,3244.259521 16.427265,3249.114746 
	C37.970943,3284.328857 59.598816,3319.491699 81.274498,3354.624756 
	C102.250702,3388.624268 123.298927,3422.579102 144.346268,3456.534668 
	C164.692352,3489.358887 185.092041,3522.149658 205.441956,3554.971436 
	C226.493301,3588.924561 247.502441,3622.903809 268.549866,3656.859375 
	C288.895935,3689.683350 309.281525,3722.482666 329.623291,3755.309326 
	C349.964569,3788.135254 370.294037,3820.968506 390.590149,3853.822266 
	C415.785858,3894.607178 440.915070,3935.433105 466.123871,3976.209961 
	C486.430664,4009.057617 506.789154,4041.873779 527.168518,4074.676514 
	C547.548889,4107.480469 568.019165,4140.229492 588.385620,4173.042480 
	C610.507080,4208.682617 632.565002,4244.361328 654.630493,4280.036133 
	C674.594055,4312.312500 694.505005,4344.621582 714.486328,4376.886719 
	C734.819153,4409.719238 755.224060,4442.506348 775.570068,4475.330566 
	C796.617371,4509.286133 817.625244,4543.266602 838.663391,4577.227539 
	C858.299011,4608.924805 877.967834,4640.601562 897.594421,4672.304199 
	C922.829468,4713.065918 948.032593,4753.847168 973.256958,4794.615234 
	C994.276733,4828.588379 1015.289856,4862.564941 1036.337158,4896.520508 
	C1056.683105,4929.344727 1077.084351,4962.134766 1097.434082,4994.956543 
	C1118.485596,5028.909668 1139.493774,5062.889648 1160.541138,5096.845215 
	C1180.887207,5129.668945 1201.280518,5162.464355 1221.614136,5195.295898 
	C1241.596680,5227.560547 1261.512085,5259.866699 1281.489502,5292.134277 
	C1306.375122,5332.329590 1331.288086,5372.508301 1356.200073,5412.687012 
	C1372.690063,5439.282715 1389.223267,5465.851074 1405.695312,5492.458008 
	C1430.929932,5533.219727 1456.121582,5574.008301 1481.344604,5614.777344 
	C1502.363647,5648.750488 1523.387451,5682.720703 1544.435181,5716.676270 
	C1564.781494,5749.500000 1585.166870,5782.299805 1605.523315,5815.117188 
	C1626.932861,5849.632324 1648.455811,5884.078613 1669.637939,5918.732910 
	C1674.812378,5927.197754 1678.848511,5936.358398 1683.703979,5946.599609 
	C1425.249756,5948.000000 1166.499512,5948.000000 905.578491,5946.599609 
	C898.848389,5936.358398 894.812622,5927.197754 889.638428,5918.731934 
	C868.453125,5884.072266 846.926758,5849.620605 825.513855,5815.100098 
	C805.153931,5782.276855 784.763245,5749.472656 764.413940,5716.643066 
	C743.363464,5682.681641 722.339722,5648.704102 701.316895,5614.725586 
	C676.089233,5573.949707 650.888977,5533.157227 625.650696,5492.388672 
	C606.021545,5460.680176 586.342651,5429.002441 566.703003,5397.300781 
	C545.660889,5363.333984 524.654297,5329.345703 503.603699,5295.384277 
	C483.254822,5262.554199 462.843689,5229.763184 442.507935,5196.925293 
	C422.523560,5164.654297 402.611206,5132.338867 382.644562,5100.057129 
	C360.575684,5064.376953 338.513062,5028.691895 316.387787,4993.046387 
	C296.017639,4960.228516 275.543976,4927.474121 255.160721,4894.664062 
	C234.778290,4861.855957 214.418427,4829.032715 194.107910,4796.179688 
	C168.894669,4755.396484 143.758469,4714.565430 118.558693,4673.773926 
	C98.259354,4640.914551 77.882332,4608.103027 57.603428,4575.231445 
	C45.365959,4555.394531 33.384907,4535.397949 21.003386,4515.652344 
	C16.834965,4509.004883 13.244239,4501.314941 4.000000,4500.000000 
	C4.000000,4081.249756 4.000000,3662.499512 4.000000,3241.874512 
z"/>
<path fill="#673C7C" opacity="1.000000" stroke="none" 
	d="
M4.000000,476.000000 
	C4.000000,318.876099 4.000000,161.752182 4.000000,4.000000 
	C284.083252,4.000000 564.166992,4.000000 846.235352,5.489030 
	C851.091614,14.356580 853.027283,22.289501 857.008362,29.010906 
	C869.539734,50.168152 882.873108,70.849403 895.833618,91.753578 
	C916.849670,125.650604 937.819214,159.576553 958.803101,193.493561 
	C983.984619,234.195267 1009.103943,274.935608 1034.360229,315.590851 
	C1049.444092,339.871368 1064.888916,363.928192 1079.907593,388.248444 
	C1110.642456,438.018188 1141.155151,487.924927 1171.842529,537.724121 
	C1200.089355,583.563049 1228.365479,629.384583 1256.831421,675.087524 
	C1261.577393,682.707397 1264.333374,690.578796 1262.131836,699.812134 
	C1213.028198,698.286743 1165.762207,696.645752 1118.512085,694.629944 
	C1041.979614,691.364624 965.462952,687.725891 888.929504,684.481384 
	C810.397461,681.152283 731.850342,678.178650 653.315796,674.906616 
	C615.381653,673.326172 577.467102,671.275085 539.533020,669.692261 
	C480.964478,667.248291 422.387604,665.002502 363.810028,662.783264 
	C361.514832,662.696289 358.315277,661.782349 357.093964,666.427429 
	C363.904968,671.653748 370.866180,677.283691 378.154816,682.451843 
	C381.237640,684.637756 385.013153,685.844238 388.466736,687.510559 
	C392.619568,689.514160 397.333801,690.832886 400.818298,693.663025 
	C419.408844,708.761841 443.114410,715.346008 461.593109,730.545898 
	C476.422180,734.326233 486.967957,745.628113 500.053833,752.526428 
	C513.026733,759.365112 524.802979,768.789673 538.231750,774.362671 
	C552.768494,780.395325 564.849243,790.293030 578.962769,796.955261 
	C586.816956,800.662842 594.756287,805.507507 602.150879,810.473877 
	C609.607483,815.481750 618.140869,818.880493 624.986328,824.136414 
	C636.402649,832.901794 651.618713,834.722290 661.564636,845.909912 
	C664.273560,848.956970 669.591858,849.608948 673.589600,851.606201 
	C677.730103,853.674866 681.826599,855.872742 685.757263,858.312195 
	C696.029175,864.687012 705.968689,871.632202 716.469116,877.595642 
	C729.934143,885.242676 744.291504,891.393372 757.401245,899.572266 
	C773.683594,909.730347 790.250183,919.292847 806.840698,928.888184 
	C816.343018,934.383972 826.843750,938.218994 835.598450,944.706299 
	C849.641235,955.112244 865.637024,962.055969 880.257019,971.414124 
	C890.513977,977.979492 902.655090,981.843994 912.235168,989.164978 
	C925.146240,999.031372 941.260071,1003.308105 953.238159,1014.392517 
	C967.634399,1017.592407 976.840698,1030.420776 990.713135,1034.592407 
	C997.187073,1042.747314 1008.551819,1042.285889 1015.875854,1048.678955 
	C1028.160645,1059.402344 1044.242310,1063.656372 1057.035522,1073.761963 
	C1062.895142,1078.390381 1071.135620,1079.740234 1077.024414,1085.724854 
	C1082.301880,1091.088379 1090.366699,1093.028687 1096.984863,1096.912598 
	C1109.167358,1104.061890 1121.048706,1112.475830 1133.800659,1117.846680 
	C1147.219849,1123.498535 1156.835327,1135.030518 1170.961548,1138.707275 
	C1177.298828,1147.111084 1188.875610,1146.275635 1196.124390,1152.773193 
	C1207.815063,1163.252563 1223.442993,1167.001221 1235.602905,1176.750244 
	C1241.603149,1181.560913 1248.900391,1184.800659 1255.750488,1188.492188 
	C1263.220825,1192.517822 1271.038574,1195.920898 1278.385742,1200.149902 
	C1352.834961,1243.003296 1427.230103,1285.951172 1501.596680,1328.947754 
	C1506.735352,1331.918579 1511.526367,1335.490601 1516.627441,1339.827393 
	C1518.115356,1345.109253 1520.556274,1346.062012 1525.415771,1343.546631 
	C1529.958618,1345.889648 1533.305664,1348.053345 1536.776489,1351.613525 
	C1541.221558,1363.306274 1542.657715,1363.917847 1553.368652,1359.683350 
	C1557.912598,1362.049072 1561.254395,1364.242310 1564.737549,1367.813477 
	C1569.276001,1379.325195 1570.645752,1379.905029 1581.284668,1375.791504 
	C1584.289185,1377.325562 1586.127563,1378.710083 1588.098389,1381.383301 
	C1591.687744,1391.435913 1592.186890,1391.625854 1601.433350,1387.428589 
	C1604.427002,1389.000366 1606.252319,1390.395752 1608.157593,1393.275635 
	C1610.695801,1400.838867 1611.746582,1408.206787 1615.895630,1412.736572 
	C1625.493164,1423.214111 1631.998779,1435.559937 1639.422729,1447.317383 
	C1660.728271,1481.059448 1681.533813,1515.117188 1702.562500,1549.034546 
	C1722.890259,1581.821777 1743.266724,1614.578735 1763.593262,1647.366821 
	C1784.620361,1681.284912 1805.601562,1715.231445 1826.624512,1749.152100 
	C1846.596558,1781.376953 1866.578369,1813.595825 1886.589111,1845.796509 
	C1907.302856,1879.128418 1928.165161,1912.368774 1948.764893,1945.770874 
	C1972.505493,1984.265869 1995.859497,2022.999756 2019.692505,2061.437012 
	C2047.382690,2106.095459 2075.427979,2150.533936 2103.278076,2195.093506 
	C2109.271240,2204.682129 2115.306885,2214.256348 2120.912354,2224.071777 
	C2124.699219,2230.702637 2123.797607,2234.123047 2117.901123,2239.746338 
	C2115.984863,2241.573975 2113.790283,2243.109863 2110.533691,2244.592285 
	C2105.992676,2242.270264 2102.640625,2240.134766 2099.301270,2236.512695 
	C2095.742432,2223.687012 2094.828125,2223.308838 2082.592773,2228.426025 
	C2078.047119,2226.085449 2074.698242,2223.922852 2071.346924,2220.293213 
	C2067.689941,2207.673096 2066.849365,2207.328369 2054.637939,2212.294434 
	C2050.095459,2209.924072 2046.755737,2207.727051 2043.290283,2204.460938 
	C2041.850952,2199.006104 2039.393066,2198.062744 2034.278931,2200.609375 
	C1989.575684,2175.403564 1946.260498,2150.510254 1902.968994,2125.575928 
	C1826.278564,2081.404297 1749.589600,2037.230103 1672.925781,1993.012207 
	C1635.530640,1971.443359 1598.215942,1949.734985 1560.824951,1928.158813 
	C1514.778931,1901.588135 1468.689819,1875.092651 1422.622681,1848.558716 
	C1384.066284,1826.350830 1345.489624,1804.177612 1306.968262,1781.908691 
	C1267.846802,1759.292847 1228.799561,1736.548340 1189.687134,1713.916626 
	C1149.456665,1690.638062 1109.196655,1667.410278 1068.931152,1644.192139 
	C1032.104370,1622.956543 995.277039,1601.721191 958.369751,1580.625977 
	C955.127930,1578.773071 951.290649,1577.961670 948.135803,1576.814209 
	C940.056885,1590.286987 932.220764,1602.505737 925.241394,1615.195557 
	C915.066345,1633.695679 905.462952,1652.511475 895.695862,1671.234375 
	C879.571350,1702.143921 863.457886,1733.059448 847.454895,1764.032104 
	C842.609314,1773.410400 838.144165,1782.985352 832.124878,1792.030029 
	C820.327820,1786.406372 817.197083,1775.455200 811.627380,1766.652100 
	C789.554810,1731.765991 768.044556,1696.523926 746.328918,1661.411987 
	C726.014587,1628.565796 705.727112,1595.703125 685.385315,1562.874023 
	C665.042786,1530.043823 644.628357,1497.258057 624.280762,1464.430908 
	C603.231934,1430.472534 582.217102,1396.493042 561.202881,1362.513184 
	C536.335327,1322.302612 511.491943,1282.077271 486.623749,1241.867188 
	C466.309692,1209.020630 445.988312,1176.178467 425.645233,1143.349854 
	C405.301727,1110.520752 384.916565,1077.717163 364.569000,1044.890503 
	C343.519897,1010.931885 322.507477,976.950562 301.454224,942.994507 
	C281.102509,910.169983 260.702209,877.375610 240.354553,844.548584 
	C219.305588,810.590149 198.270615,776.623047 177.272736,742.633057 
	C153.475220,704.111023 129.747421,665.546021 105.948906,627.024658 
	C84.250137,591.902039 62.589069,556.755615 40.719200,521.739685 
	C32.957481,509.312317 24.570581,497.276886 16.590895,484.983490 
	C13.531859,480.270813 9.636071,476.979218 4.000000,476.000000 
z"/>
<path fill="#704187" opacity="1.000000" stroke="none" 
	d="
M5599.465332,4635.468750 
	C5605.127441,4633.742676 5610.789551,4632.016602 5617.435547,4629.990723 
	C5619.892090,4632.515625 5623.085938,4634.927734 5625.156250,4638.078613 
	C5633.931152,4651.431641 5642.474609,4664.940918 5650.916504,4678.508301 
	C5680.815918,4726.558594 5710.733398,4774.597656 5740.460449,4822.754395 
	C5764.241699,4861.278809 5787.656250,4900.028809 5811.420898,4938.563477 
	C5832.041504,4972.000488 5852.967285,5005.249023 5873.682129,5038.627930 
	C5894.043945,5071.437988 5914.291992,5104.319824 5934.625000,5137.148438 
	C5954.608887,5169.411621 5974.648438,5201.640625 5994.642578,5233.896973 
	C6016.040039,5268.417480 6037.404785,5302.958496 6058.799316,5337.480469 
	C6078.439941,5369.172852 6098.111328,5400.845703 6117.751953,5432.538086 
	C6142.654785,5472.720703 6167.528809,5512.920898 6192.437012,5553.100098 
	C6208.924805,5579.695312 6225.482910,5606.247070 6241.951660,5632.854492 
	C6267.182129,5673.616211 6292.350586,5714.416504 6317.567383,5755.187012 
	C6338.230469,5788.594727 6358.910156,5821.993164 6379.613281,5855.376953 
	C6392.948242,5876.879395 6406.599121,5898.191895 6419.568848,5919.911133 
	C6424.314453,5927.857910 6427.503906,5936.733887 6431.701660,5946.592773 
	C5879.916504,5948.000000 5327.832520,5948.000000 4773.766602,5946.520508 
	C4769.355469,5938.945312 4767.617676,5932.449219 4764.358887,5926.835938 
	C4757.031250,5914.215820 4748.838379,5902.101074 4741.192383,5889.661133 
	C4710.607910,5839.903320 4680.251465,5790.005371 4649.522461,5740.336914 
	C4612.157715,5679.943848 4574.390137,5619.800293 4537.057617,5559.387207 
	C4528.330078,5545.263672 4519.823730,5531.094727 4508.785156,5518.373047 
	C4515.831543,5514.694824 4521.921875,5511.999023 4528.050293,5509.393555 
	C4747.956055,5415.897461 4949.131836,5291.896484 5132.254395,5138.479492 
	C5277.913574,5016.448242 5407.959473,4879.367188 5525.770508,4730.476074 
	C5529.872070,4725.291992 5534.480469,4720.508301 5540.296875,4715.314453 
	C5550.229980,4713.085449 5551.773438,4706.779297 5551.578125,4699.497559 
	C5551.661133,4699.651367 5551.331543,4699.535156 5552.840332,4699.478516 
	C5565.721680,4695.209961 5566.227539,4694.338867 5564.591797,4681.312988 
	C5564.589355,4680.847656 5565.462891,4680.526855 5566.991699,4680.915039 
	C5579.111816,4678.585449 5579.259766,4678.301270 5576.599609,4665.341797 
	C5576.601562,4664.872559 5577.479980,4664.539551 5579.008789,4664.924805 
	C5591.120117,4662.570801 5591.266113,4662.289062 5588.570312,4649.345703 
	C5588.551270,4648.893066 5589.400391,4648.577637 5590.829590,4648.826172 
	C5601.230469,4647.992676 5599.251953,4641.089844 5599.605469,4635.475586 
	C5599.677246,4635.562012 5599.465332,4635.468750 5599.465332,4635.468750 
z"/>
<path fill="#613875" opacity="1.000000" stroke="none" 
	d="
M4.000000,477.874634 
	C9.636071,476.979218 13.531859,480.270813 16.590895,484.983490 
	C24.570581,497.276886 32.957481,509.312317 40.719200,521.739685 
	C62.589069,556.755615 84.250137,591.902039 105.948906,627.024658 
	C129.747421,665.546021 153.475220,704.111023 177.272736,742.633057 
	C198.270615,776.623047 219.305588,810.590149 240.354553,844.548584 
	C260.702209,877.375610 281.102509,910.169983 301.454224,942.994507 
	C322.507477,976.950562 343.519897,1010.931885 364.569000,1044.890503 
	C384.916565,1077.717163 405.301727,1110.520752 425.645233,1143.349854 
	C445.988312,1176.178467 466.309692,1209.020630 486.623749,1241.867188 
	C511.491943,1282.077271 536.335327,1322.302612 561.202881,1362.513184 
	C582.217102,1396.493042 603.231934,1430.472534 624.280762,1464.430908 
	C644.628357,1497.258057 665.042786,1530.043823 685.385315,1562.874023 
	C705.727112,1595.703125 726.014587,1628.565796 746.328918,1661.411987 
	C768.044556,1696.523926 789.554810,1731.765991 811.627380,1766.652100 
	C817.197083,1775.455200 820.327820,1786.406372 831.820557,1793.493286 
	C831.286682,1799.051270 829.739746,1802.734863 828.058960,1806.356445 
	C780.065857,1909.763672 738.671875,2015.741821 703.866150,2124.305908 
	C664.976990,2245.606934 634.843384,2369.065430 613.047302,2494.531982 
	C602.216858,2556.876709 593.337891,2619.527588 587.324768,2682.556885 
	C584.859131,2708.401855 581.937622,2734.203369 579.223511,2760.024658 
	C570.753174,2758.448975 565.310608,2753.362793 560.872009,2746.049561 
	C539.805542,2711.339844 518.415039,2676.826172 497.064850,2642.289062 
	C477.464752,2610.583008 457.754608,2578.945068 438.118286,2547.261230 
	C413.221436,2507.089844 388.363861,2466.893799 363.463135,2426.724854 
	C346.980560,2400.135986 330.415894,2373.597900 313.951965,2346.997559 
	C288.729034,2306.245850 263.575317,2265.451416 238.366165,2224.691406 
	C217.709091,2191.291504 197.010223,2157.917480 176.336243,2124.528076 
	C155.312088,2090.572510 134.311356,2056.602295 113.271629,2022.656494 
	C93.283798,1990.407471 73.261108,1958.180054 53.248806,1925.946167 
	C42.365078,1908.415771 31.486490,1890.882080 20.573305,1873.369995 
	C16.720554,1867.187744 13.491187,1860.451294 5.267892,1856.452148 
	C4.000000,1397.249756 4.000000,938.499512 4.000000,477.874634 
z"/>
<path fill="#6F4086" opacity="1.000000" stroke="none" 
	d="
M1263.976562,699.528137 
	C1264.333374,690.578796 1261.577393,682.707397 1256.831421,675.087524 
	C1228.365479,629.384583 1200.089355,583.563049 1171.842529,537.724121 
	C1141.155151,487.924927 1110.642456,438.018188 1079.907593,388.248444 
	C1064.888916,363.928192 1049.444092,339.871368 1034.360229,315.590851 
	C1009.103943,274.935608 983.984619,234.195267 958.803101,193.493561 
	C937.819214,159.576553 916.849670,125.650604 895.833618,91.753578 
	C882.873108,70.849403 869.539734,50.168152 857.008362,29.010906 
	C853.027283,22.289501 851.091614,14.356580 848.109985,5.489030 
	C1422.750244,4.000000 1997.500488,4.000000 2574.125244,4.000034 
	C2579.840332,12.426618 2582.854736,21.359022 2587.654053,29.198425 
	C2621.000977,83.666534 2654.677490,137.933350 2688.336670,192.209763 
	C2703.063477,215.957291 2718.019775,239.562393 2732.831055,263.257812 
	C2738.498779,272.325714 2743.994385,281.487183 2742.571533,294.972595 
	C2708.833740,304.868988 2676.336670,312.127838 2644.054443,320.240204 
	C2403.084717,380.794922 2173.652588,470.594940 1956.654175,591.851624 
	C1889.726562,629.250122 1824.423462,669.287842 1761.036987,712.411987 
	C1752.404053,718.285278 1743.893677,721.465515 1733.226074,720.655029 
	C1715.962769,719.343384 1698.598999,719.413513 1681.287598,718.667542 
	C1600.728638,715.196167 1520.175415,711.589111 1439.615234,708.144165 
	C1395.672119,706.265076 1351.713501,704.740662 1307.773926,702.784729 
	C1293.155518,702.134033 1278.574585,700.637817 1263.976562,699.528137 
z"/>
<path fill="#4E2D5E" opacity="1.000000" stroke="none" 
	d="
M4.000000,4501.874512 
	C13.244239,4501.314941 16.834965,4509.004883 21.003386,4515.652344 
	C33.384907,4535.397949 45.365959,4555.394531 57.603428,4575.231445 
	C77.882332,4608.103027 98.259354,4640.914551 118.558693,4673.773926 
	C143.758469,4714.565430 168.894669,4755.396484 194.107910,4796.179688 
	C214.418427,4829.032715 234.778290,4861.855957 255.160721,4894.664062 
	C275.543976,4927.474121 296.017639,4960.228516 316.387787,4993.046387 
	C338.513062,5028.691895 360.575684,5064.376953 382.644562,5100.057129 
	C402.611206,5132.338867 422.523560,5164.654297 442.507935,5196.925293 
	C462.843689,5229.763184 483.254822,5262.554199 503.603699,5295.384277 
	C524.654297,5329.345703 545.660889,5363.333984 566.703003,5397.300781 
	C586.342651,5429.002441 606.021545,5460.680176 625.650696,5492.388672 
	C650.888977,5533.157227 676.089233,5573.949707 701.316895,5614.725586 
	C722.339722,5648.704102 743.363464,5682.681641 764.413940,5716.643066 
	C784.763245,5749.472656 805.153931,5782.276855 825.513855,5815.100098 
	C846.926758,5849.620605 868.453125,5884.072266 889.638428,5918.731934 
	C894.812622,5927.197754 898.848389,5936.358398 903.703857,5946.599609 
	C604.223633,5948.000000 304.447327,5948.000000 4.000000,5948.000000 
	C4.000000,5466.583008 4.000000,4985.166016 4.000000,4501.874512 
z"/>
<path fill="#683D7E" opacity="1.000000" stroke="none" 
	d="
M4507.847656,5519.396484 
	C4519.823730,5531.094727 4528.330078,5545.263672 4537.057617,5559.387207 
	C4574.390137,5619.800293 4612.157715,5679.943848 4649.522461,5740.336914 
	C4680.251465,5790.005371 4710.607910,5839.903320 4741.192383,5889.661133 
	C4748.838379,5902.101074 4757.031250,5914.215820 4764.358887,5926.835938 
	C4767.617676,5932.449219 4769.355469,5938.945312 4771.891602,5946.520508 
	C4378.583008,5948.000000 3985.166260,5948.000000 3589.577881,5946.599121 
	C3584.697021,5939.156250 3582.571533,5932.760742 3579.173096,5927.135254 
	C3566.821045,5906.688477 3554.035156,5886.503418 3541.426514,5866.211914 
	C3520.410889,5832.391602 3498.912842,5798.856445 3478.647461,5764.592773 
	C3470.939941,5751.561035 3462.979980,5742.018066 3446.268799,5743.576172 
	C3438.844727,5744.268066 3433.765869,5739.902344 3433.743652,5731.916992 
	C3481.432129,5729.202148 3527.364990,5726.978027 3573.291992,5724.640137 
	C3639.214355,5721.284180 3704.884521,5714.856934 3770.378174,5706.929688 
	C3850.416992,5697.242676 3929.994629,5684.524414 4009.077148,5668.639160 
	C4174.087402,5635.492188 4334.944336,5588.562500 4490.884766,5525.044434 
	C4496.392090,5522.801270 4502.187012,5521.262695 4507.847656,5519.396484 
z"/>
<path fill="#623976" opacity="1.000000" stroke="none" 
	d="
M3431.985107,5732.356934 
	C3433.765869,5739.902344 3438.844727,5744.268066 3446.268799,5743.576172 
	C3462.979980,5742.018066 3470.939941,5751.561035 3478.647461,5764.592773 
	C3498.912842,5798.856445 3520.410889,5832.391602 3541.426514,5866.211914 
	C3554.035156,5886.503418 3566.821045,5906.688477 3579.173096,5927.135254 
	C3582.571533,5932.760742 3584.697021,5939.156250 3587.703125,5946.599121 
	C3246.583008,5948.000000 2905.166260,5948.000000 2561.874512,5948.000000 
	C2559.729736,5936.828613 2554.093018,5927.779297 2548.474854,5918.703125 
	C2514.911377,5864.479492 2481.412598,5810.216797 2447.800293,5756.023438 
	C2427.141357,5722.715332 2406.280029,5689.533203 2385.580811,5656.250000 
	C2368.390869,5628.610840 2351.205322,5600.966797 2334.274902,5573.168945 
	C2331.581787,5568.747559 2330.242676,5563.501465 2329.714355,5557.177246 
	C2333.061523,5556.291016 2335.010010,5556.760254 2336.875977,5557.452637 
	C2559.492432,5640.051270 2788.998291,5692.816406 3025.187988,5716.908691 
	C3111.339600,5725.696777 3197.656494,5731.281250 3284.247559,5732.073242 
	C3326.852295,5732.462891 3369.465576,5731.893555 3412.074951,5731.825684 
	C3418.711426,5731.815430 3425.348389,5732.170410 3431.985107,5732.356934 
z"/>
<path fill="#FFFFFF" opacity="1.000000" stroke="none" 
	d="
M3433.743652,5731.916992 
	C3425.348389,5732.170410 3418.711426,5731.815430 3412.074951,5731.825684 
	C3369.465576,5731.893555 3326.852295,5732.462891 3284.247559,5732.073242 
	C3197.656494,5731.281250 3111.339600,5725.696777 3025.187988,5716.908691 
	C2788.998291,5692.816406 2559.492432,5640.051270 2336.875977,5557.452637 
	C2335.010010,5556.760254 2333.061523,5556.291016 2329.628906,5555.698730 
	C2322.724365,5553.189453 2317.434326,5550.471680 2311.945312,5548.244629 
	C2270.033691,5531.240723 2227.660400,5515.287598 2186.332275,5496.972656 
	C2167.144531,5488.469238 2147.549072,5480.654297 2128.929199,5470.692383 
	C2110.155029,5460.646484 2090.554199,5452.158203 2071.476074,5442.664551 
	C2052.993652,5433.468262 2034.624146,5424.034180 2016.374023,5414.385254 
	C1997.533081,5404.423828 1978.802002,5394.244629 1960.196045,5383.850586 
	C1941.588623,5373.455566 1923.037109,5362.942871 1904.731445,5352.027832 
	C1431.169678,5069.660645 1075.787842,4679.256836 837.321594,4182.472656 
	C743.303894,3986.610352 675.562622,3781.684326 631.116699,3569.025879 
	C614.073547,3487.480469 600.939148,3405.344482 591.030823,3322.623047 
	C573.554749,3176.720703 569.285217,3030.329834 573.151917,2883.592285 
	C573.783752,2859.614502 575.221924,2835.657959 576.490051,2808.300293 
	C576.636353,2800.613281 576.579956,2796.317139 576.523560,2792.021240 
	C577.597778,2782.440430 578.671875,2772.859619 579.484741,2761.651855 
	C581.937622,2734.203369 584.859131,2708.401855 587.324768,2682.556885 
	C593.337891,2619.527588 602.216858,2556.876709 613.047302,2494.531982 
	C634.843384,2369.065430 664.976990,2245.606934 703.866150,2124.305908 
	C738.671875,2015.741821 780.065857,1909.763672 828.058960,1806.356445 
	C829.739746,1802.734863 831.286682,1799.051270 833.200317,1793.933350 
	C838.144165,1782.985352 842.609314,1773.410400 847.454895,1764.032104 
	C863.457886,1733.059448 879.571350,1702.143921 895.695862,1671.234375 
	C905.462952,1652.511475 915.066345,1633.695679 925.241394,1615.195557 
	C932.220764,1602.505737 940.056885,1590.286987 948.135803,1576.814209 
	C951.290649,1577.961670 955.127930,1578.773071 958.369751,1580.625977 
	C995.277039,1601.721191 1032.104370,1622.956543 1068.931152,1644.192139 
	C1109.196655,1667.410278 1149.456665,1690.638062 1189.687134,1713.916626 
	C1228.799561,1736.548340 1267.846802,1759.292847 1306.968262,1781.908691 
	C1345.489624,1804.177612 1384.066284,1826.350830 1422.622681,1848.558716 
	C1468.689819,1875.092651 1514.778931,1901.588135 1560.824951,1928.158813 
	C1598.215942,1949.734985 1635.530640,1971.443359 1672.925781,1993.012207 
	C1749.589600,2037.230103 1826.278564,2081.404297 1902.968994,2125.575928 
	C1946.260498,2150.510254 1989.575684,2175.403564 2034.917480,2201.598145 
	C2039.108398,2203.763916 2041.262207,2204.647217 2043.416016,2205.530273 
	C2046.755737,2207.727051 2050.095459,2209.924072 2055.371094,2213.385742 
	C2061.987549,2217.020264 2066.668213,2219.390381 2071.349121,2221.760254 
	C2074.698242,2223.922852 2078.047119,2226.085449 2083.331055,2229.514648 
	C2089.939941,2233.187012 2094.614258,2235.593018 2099.288574,2237.999023 
	C2102.640625,2240.134766 2105.992676,2242.270264 2111.312012,2245.686279 
	C2117.295410,2249.337402 2121.291504,2251.742188 2125.330078,2254.073730 
	C2461.103516,2447.920654 2796.880371,2641.761230 3132.656006,2835.604248 
	C3224.389160,2888.561768 3316.127686,2941.510254 3407.828125,2994.523926 
	C3413.378174,2997.732422 3419.796631,2999.956543 3424.690430,3006.665283 
	C3420.789795,3007.556885 3418.407471,3008.308350 3415.968262,3008.628662 
	C3374.362061,3014.088867 3332.742676,3019.448730 3291.138672,3024.924561 
	C3224.440918,3033.702881 3157.765869,3042.655762 3091.055908,3051.338867 
	C3024.343750,3060.021973 2957.584229,3068.341797 2890.874268,3077.041992 
	C2804.352051,3088.325928 2717.871338,3099.929932 2631.348145,3111.207031 
	C2554.730957,3121.192871 2478.075439,3130.884033 2401.453369,3140.833252 
	C2395.736328,3141.575439 2390.152344,3143.340820 2384.063965,3144.731689 
	C2384.063965,3148.571289 2383.776611,3151.206299 2384.110596,3153.760254 
	C2386.355713,3170.928467 2388.597412,3188.099365 2391.090332,3205.232910 
	C2405.143066,3301.811523 2429.252197,3395.811035 2463.960205,3487.038574 
	C2517.637207,3628.123779 2593.428955,3755.744873 2697.794434,3865.346436 
	C2874.738037,4051.168213 3092.343750,4151.866699 3347.586914,4171.120117 
	C3435.504150,4177.751953 3523.348877,4173.713867 3610.722900,4160.642578 
	C3714.897217,4145.058105 3814.603516,4115.134766 3909.686768,4069.785400 
	C4004.094727,4024.757568 4089.942383,3966.631592 4170.061035,3899.744141 
	C4253.661133,3829.950195 4329.467285,3752.258545 4401.627441,3670.883301 
	C4403.835449,3668.392578 4406.671875,3666.120605 4407.943359,3663.194092 
	C4414.356934,3648.434570 4428.613281,3641.438477 4439.323242,3629.259521 
	C4445.926270,3633.853271 4451.932617,3637.886719 4457.789062,3642.127197 
	C4560.872559,3716.769287 4663.926270,3791.450928 4767.033203,3866.060791 
	C4772.391602,3869.938232 4778.156738,3873.254395 4783.732422,3876.832031 
	C4789.884766,3881.816650 4795.819336,3887.102539 4802.222168,3891.742432 
	C5086.805664,4097.965820 5371.437988,4304.122559 5656.004883,4510.369629 
	C5662.340332,4514.961426 5669.958984,4518.301758 5674.483398,4527.296875 
	C5649.915527,4562.180664 5625.038574,4597.502930 5599.813477,4634.146973 
	C5599.465332,4635.468750 5599.677246,4635.562012 5598.520020,4636.043945 
	C5594.708496,4640.542969 5592.054199,4644.560547 5589.400391,4648.577637 
	C5589.400391,4648.577637 5588.551270,4648.893066 5587.622070,4650.024414 
	C5583.621582,4655.617188 5580.550781,4660.078125 5577.479980,4664.539551 
	C5577.479980,4664.539551 5576.601562,4664.872559 5575.655273,4666.025391 
	C5571.626953,4671.627930 5568.544922,4676.077637 5565.462891,4680.526855 
	C5565.462891,4680.526855 5564.589355,4680.847656 5563.600586,4682.022461 
	C5558.852051,4688.643066 5555.092285,4694.089355 5551.332031,4699.535156 
	C5551.331543,4699.535156 5551.661133,4699.651367 5550.424805,4700.112793 
	C5545.743652,4705.562500 5542.298340,4710.550781 5538.853027,4715.538574 
	C5534.480469,4720.508301 5529.872070,4725.291992 5525.770508,4730.476074 
	C5407.959473,4879.367188 5277.913574,5016.448242 5132.254395,5138.479492 
	C4949.131836,5291.896484 4747.956055,5415.897461 4528.050293,5509.393555 
	C4521.921875,5511.999023 4515.831543,5514.694824 4508.785156,5518.373047 
	C4502.187012,5521.262695 4496.392090,5522.801270 4490.884766,5525.044434 
	C4334.944336,5588.562500 4174.087402,5635.492188 4009.077148,5668.639160 
	C3929.994629,5684.524414 3850.416992,5697.242676 3770.378174,5706.929688 
	C3704.884521,5714.856934 3639.214355,5721.284180 3573.291992,5724.640137 
	C3527.364990,5726.978027 3481.432129,5729.202148 3433.743652,5731.916992 
z"/>
<path fill="#FFFFFF" opacity="1.000000" stroke="none" 
	d="
M1262.131836,699.812134 
	C1278.574585,700.637817 1293.155518,702.134033 1307.773926,702.784729 
	C1351.713501,704.740662 1395.672119,706.265076 1439.615234,708.144165 
	C1520.175415,711.589111 1600.728638,715.196167 1681.287598,718.667542 
	C1698.598999,719.413513 1715.962769,719.343384 1733.226074,720.655029 
	C1743.893677,721.465515 1752.404053,718.285278 1761.036987,712.411987 
	C1824.423462,669.287842 1889.726562,629.250122 1956.654175,591.851624 
	C2173.652588,470.594940 2403.084717,380.794922 2644.054443,320.240204 
	C2676.336670,312.127838 2708.833740,304.868988 2742.608154,296.515991 
	C2747.942139,295.466644 2751.984131,295.519592 2755.843750,294.706696 
	C2844.556641,276.023010 2933.954590,261.688263 3023.994873,251.052948 
	C3165.858154,234.296387 3308.198975,227.159729 3450.972656,229.769928 
	C3510.928711,230.866058 3570.896729,233.388962 3630.759033,236.951385 
	C3693.938965,240.711227 3756.916504,247.162033 3819.761230,255.006042 
	C3931.606934,268.966156 4042.293213,289.043610 4151.713867,316.023041 
	C4442.513184,387.724213 4712.916504,505.190155 4959.235840,676.528992 
	C5151.045410,809.950806 5318.443359,969.368958 5464.463379,1151.507935 
	C5526.638672,1229.062622 5584.276367,1309.866333 5637.664551,1393.706177 
	C5640.157227,1397.620728 5642.444824,1401.666504 5644.786621,1405.582153 
	C5642.405273,1413.848755 5634.990723,1416.617554 5629.332031,1420.843872 
	C5555.109863,1476.279419 5480.768555,1531.554932 5406.445312,1586.855103 
	C5074.397949,1833.914307 4742.349121,2080.971680 4410.278320,2328.000732 
	C4403.953125,2332.706299 4398.045898,2338.163086 4389.387695,2341.529297 
	C4384.784180,2335.451416 4380.346191,2329.722412 4376.044922,2323.892822 
	C4317.778809,2244.928223 4255.194336,2169.668945 4184.929688,2100.992920 
	C4105.825684,2023.677002 4018.848877,1956.982422 3920.625244,1905.552856 
	C3822.371094,1854.107056 3718.233643,1820.530640 3608.719482,1803.366577 
	C3575.133789,1798.102417 3541.478271,1793.565186 3504.040039,1791.699707 
	C3443.376221,1786.835205 3386.192871,1786.755737 3328.928467,1791.148804 
	C3273.655029,1795.389160 3219.222900,1804.339233 3165.598389,1818.184326 
	C3014.412598,1857.218872 2881.293701,1930.037109 2764.462402,2033.207031 
	C2759.033447,2038.001099 2753.505127,2042.682495 2747.615723,2047.768311 
	C2739.423096,2043.235596 2731.862549,2039.209229 2724.448730,2034.928223 
	C2358.250977,1823.465454 1992.068848,1611.975586 1625.850952,1400.547852 
	C1620.143555,1397.252930 1614.011475,1394.693726 1608.077637,1391.791016 
	C1606.252319,1390.395752 1604.427002,1389.000366 1600.768066,1386.397339 
	C1595.278198,1383.491333 1591.622070,1381.792969 1587.965942,1380.094604 
	C1586.127563,1378.710083 1584.289185,1377.325562 1580.548462,1374.703125 
	C1573.962769,1371.122070 1569.279419,1368.778809 1564.596191,1366.435425 
	C1561.254395,1364.242310 1557.912598,1362.049072 1552.633301,1358.593750 
	C1546.014648,1354.959961 1541.333618,1352.588501 1536.652710,1350.216919 
	C1533.305664,1348.053345 1529.958618,1345.889648 1524.798340,1342.538574 
	C1520.816406,1340.494995 1518.647705,1339.638916 1516.479126,1338.782959 
	C1511.526367,1335.490601 1506.735352,1331.918579 1501.596680,1328.947754 
	C1427.230103,1285.951172 1352.834961,1243.003296 1278.385742,1200.149902 
	C1271.038574,1195.920898 1263.220825,1192.517822 1255.750488,1188.492188 
	C1248.900391,1184.800659 1241.603149,1181.560913 1235.602905,1176.750244 
	C1223.442993,1167.001221 1207.815063,1163.252563 1196.124390,1152.773193 
	C1188.875610,1146.275635 1177.298828,1147.111084 1170.961548,1138.707275 
	C1156.835327,1135.030518 1147.219849,1123.498535 1133.800659,1117.846680 
	C1121.048706,1112.475830 1109.167358,1104.061890 1096.984863,1096.912598 
	C1090.366699,1093.028687 1082.301880,1091.088379 1077.024414,1085.724854 
	C1071.135620,1079.740234 1062.895142,1078.390381 1057.035522,1073.761963 
	C1044.242310,1063.656372 1028.160645,1059.402344 1015.875854,1048.678955 
	C1008.551819,1042.285889 997.187073,1042.747314 990.713135,1034.592407 
	C976.840698,1030.420776 967.634399,1017.592407 953.238159,1014.392517 
	C941.260071,1003.308105 925.146240,999.031372 912.235168,989.164978 
	C902.655090,981.843994 890.513977,977.979492 880.257019,971.414124 
	C865.637024,962.055969 849.641235,955.112244 835.598450,944.706299 
	C826.843750,938.218994 816.343018,934.383972 806.840698,928.888184 
	C790.250183,919.292847 773.683594,909.730347 757.401245,899.572266 
	C744.291504,891.393372 729.934143,885.242676 716.469116,877.595642 
	C705.968689,871.632202 696.029175,864.687012 685.757263,858.312195 
	C681.826599,855.872742 677.730103,853.674866 673.589600,851.606201 
	C669.591858,849.608948 664.273560,848.956970 661.564636,845.909912 
	C651.618713,834.722290 636.402649,832.901794 624.986328,824.136414 
	C618.140869,818.880493 609.607483,815.481750 602.150879,810.473877 
	C594.756287,805.507507 586.816956,800.662842 578.962769,796.955261 
	C564.849243,790.293030 552.768494,780.395325 538.231750,774.362671 
	C524.802979,768.789673 513.026733,759.365112 500.053833,752.526428 
	C486.967957,745.628113 476.422180,734.326233 461.593109,730.545898 
	C443.114410,715.346008 419.408844,708.761841 400.818298,693.663025 
	C397.333801,690.832886 392.619568,689.514160 388.466736,687.510559 
	C385.013153,685.844238 381.237640,684.637756 378.154816,682.451843 
	C370.866180,677.283691 363.904968,671.653748 357.093964,666.427429 
	C358.315277,661.782349 361.514832,662.696289 363.810028,662.783264 
	C422.387604,665.002502 480.964478,667.248291 539.533020,669.692261 
	C577.467102,671.275085 615.381653,673.326172 653.315796,674.906616 
	C731.850342,678.178650 810.397461,681.152283 888.929504,684.481384 
	C965.462952,687.725891 1041.979614,691.364624 1118.512085,694.629944 
	C1165.762207,696.645752 1213.028198,698.286743 1262.131836,699.812134 
z"/>
<path fill="#6D4084" opacity="1.000000" stroke="none" 
	d="
M1608.157593,1393.275635 
	C1614.011475,1394.693726 1620.143555,1397.252930 1625.850952,1400.547852 
	C1992.068848,1611.975586 2358.250977,1823.465454 2724.448730,2034.928223 
	C2731.862549,2039.209229 2739.423096,2043.235596 2747.615723,2047.768311 
	C2753.505127,2042.682495 2759.033447,2038.001099 2764.462402,2033.207031 
	C2881.293701,1930.037109 3014.412598,1857.218872 3165.598389,1818.184326 
	C3219.222900,1804.339233 3273.655029,1795.389160 3328.928467,1791.148804 
	C3386.192871,1786.755737 3443.376221,1786.835205 3502.275391,1792.001953 
	C3507.647461,1806.997681 3517.246582,1818.428589 3524.785889,1830.866821 
	C3546.867676,1867.295776 3569.486816,1903.399536 3591.971191,1939.583740 
	C3612.700439,1972.942993 3633.559570,2006.221313 3654.303223,2039.571533 
	C3673.990967,2071.224121 3693.610596,2102.919189 3713.246582,2134.604248 
	C3734.635986,2169.118164 3756.027588,2203.630859 3777.385742,2238.164307 
	C3801.194824,2276.660400 3824.946289,2315.192139 3848.762695,2353.683838 
	C3864.873291,2379.721191 3881.094482,2405.690186 3897.193848,2431.734375 
	C3923.093994,2473.633057 3948.899658,2515.589844 3974.810303,2557.482178 
	C3994.768555,2589.750977 4014.844482,2621.946533 4034.834473,2654.195557 
	C4056.227295,2688.707520 4077.556885,2723.258057 4098.957520,2757.764893 
	C4119.305664,2790.575684 4139.712402,2823.350098 4160.088867,2856.143555 
	C4180.465332,2888.936768 4200.854492,2921.722168 4221.203613,2954.531982 
	C4242.604980,2989.038818 4263.995605,3023.552002 4285.336914,3058.095459 
	C4309.476562,3097.168945 4333.531250,3136.295410 4357.671387,3175.368652 
	C4378.312988,3208.779297 4399.027344,3242.144775 4419.701660,3275.535156 
	C4440.726562,3309.491699 4461.725098,3343.464355 4482.765625,3377.410889 
	C4502.754395,3409.660400 4522.799316,3441.875732 4542.789062,3474.124756 
	C4564.181152,3508.636475 4585.525391,3543.178711 4606.914062,3577.692627 
	C4626.550293,3609.377686 4646.229492,3641.035889 4665.868652,3672.718994 
	C4687.611816,3707.796875 4709.345703,3742.880371 4731.055664,3777.978760 
	C4743.661621,3798.358643 4756.376465,3818.674561 4768.721680,3839.211670 
	C4775.210449,3850.006592 4782.375977,3860.629639 4783.675781,3875.286133 
	C4778.156738,3873.254395 4772.391602,3869.938232 4767.033203,3866.060791 
	C4663.926270,3791.450928 4560.872559,3716.769287 4457.789062,3642.127197 
	C4451.932617,3637.886719 4445.926270,3633.853271 4439.323242,3629.259521 
	C4428.613281,3641.438477 4414.356934,3648.434570 4407.943359,3663.194092 
	C4406.671875,3666.120605 4403.835449,3668.392578 4401.627441,3670.883301 
	C4329.467285,3752.258545 4253.661133,3829.950195 4170.061035,3899.744141 
	C4089.942383,3966.631592 4004.094727,4024.757568 3909.686768,4069.785400 
	C3814.603516,4115.134766 3714.897217,4145.058105 3610.722900,4160.642578 
	C3523.348877,4173.713867 3435.504150,4177.751953 3347.586914,4171.120117 
	C3092.343750,4151.866699 2874.738037,4051.168213 2697.794434,3865.346436 
	C2593.428955,3755.744873 2517.637207,3628.123779 2463.960205,3487.038574 
	C2429.252197,3395.811035 2405.143066,3301.811523 2391.090332,3205.232910 
	C2388.597412,3188.099365 2386.355713,3170.928467 2384.110596,3153.760254 
	C2383.776611,3151.206299 2384.063965,3148.571289 2384.063965,3144.731689 
	C2390.152344,3143.340820 2395.736328,3141.575439 2401.453369,3140.833252 
	C2478.075439,3130.884033 2554.730957,3121.192871 2631.348145,3111.207031 
	C2717.871338,3099.929932 2804.352051,3088.325928 2890.874268,3077.041992 
	C2957.584229,3068.341797 3024.343750,3060.021973 3091.055908,3051.338867 
	C3157.765869,3042.655762 3224.440918,3033.702881 3291.138672,3024.924561 
	C3332.742676,3019.448730 3374.362061,3014.088867 3415.968262,3008.628662 
	C3418.407471,3008.308350 3420.789795,3007.556885 3424.690430,3006.665283 
	C3419.796631,2999.956543 3413.378174,2997.732422 3407.828125,2994.523926 
	C3316.127686,2941.510254 3224.389160,2888.561768 3132.656006,2835.604248 
	C2796.880371,2641.761230 2461.103516,2447.920654 2125.330078,2254.073730 
	C2121.291504,2251.742188 2117.295410,2249.337402 2112.501221,2245.873047 
	C2113.790283,2243.109863 2115.984863,2241.573975 2117.901123,2239.746338 
	C2123.797607,2234.123047 2124.699219,2230.702637 2120.912354,2224.071777 
	C2115.306885,2214.256348 2109.271240,2204.682129 2103.278076,2195.093506 
	C2075.427979,2150.533936 2047.382690,2106.095459 2019.692505,2061.437012 
	C1995.859497,2022.999756 1972.505493,1984.265869 1948.764893,1945.770874 
	C1928.165161,1912.368774 1907.302856,1879.128418 1886.589111,1845.796509 
	C1866.578369,1813.595825 1846.596558,1781.376953 1826.624512,1749.152100 
	C1805.601562,1715.231445 1784.620361,1681.284912 1763.593262,1647.366821 
	C1743.266724,1614.578735 1722.890259,1581.821777 1702.562500,1549.034546 
	C1681.533813,1515.117188 1660.728271,1481.059448 1639.422729,1447.317383 
	C1631.998779,1435.559937 1625.493164,1423.214111 1615.895630,1412.736572 
	C1611.746582,1408.206787 1610.695801,1400.838867 1608.157593,1393.275635 
z"/>
<path fill="#613875" opacity="1.000000" stroke="none" 
	d="
M575.312378,2792.473633 
	C576.579956,2796.317139 576.636353,2800.613281 576.208923,2806.459473 
	C567.309814,2801.993164 567.099854,2800.042480 575.312378,2792.473633 
z"/>
<path fill="#6D4084" opacity="1.000000" stroke="none" 
	d="
M2099.301270,2236.512695 
	C2094.614258,2235.593018 2089.939941,2233.187012 2084.527344,2229.692383 
	C2094.828125,2223.308838 2095.742432,2223.687012 2099.301270,2236.512695 
z"/>
<path fill="#6D4084" opacity="1.000000" stroke="none" 
	d="
M2071.346924,2220.293213 
	C2066.668213,2219.390381 2061.987549,2217.020264 2056.573730,2213.559082 
	C2066.849365,2207.328369 2067.689941,2207.673096 2071.346924,2220.293213 
z"/>
<path fill="#6D4084" opacity="1.000000" stroke="none" 
	d="
M1564.737549,1367.813477 
	C1569.279419,1368.778809 1573.962769,1371.122070 1579.382324,1374.553589 
	C1570.645752,1379.905029 1569.276001,1379.325195 1564.737549,1367.813477 
z"/>
<path fill="#6D4084" opacity="1.000000" stroke="none" 
	d="
M1536.776489,1351.613525 
	C1541.333618,1352.588501 1546.014648,1354.959961 1551.430908,1358.421143 
	C1542.657715,1363.917847 1541.221558,1363.306274 1536.776489,1351.613525 
z"/>
<path fill="#6D4084" opacity="1.000000" stroke="none" 
	d="
M1588.098389,1381.383301 
	C1591.622070,1381.792969 1595.278198,1383.491333 1599.599609,1386.220947 
	C1592.186890,1391.625854 1591.687744,1391.435913 1588.098389,1381.383301 
z"/>
<path fill="#6D4084" opacity="1.000000" stroke="none" 
	d="
M2043.290283,2204.460938 
	C2041.262207,2204.647217 2039.108398,2203.763916 2036.316162,2201.891846 
	C2039.393066,2198.062744 2041.850952,2199.006104 2043.290283,2204.460938 
z"/>
<path fill="#6D4084" opacity="1.000000" stroke="none" 
	d="
M1516.627441,1339.827393 
	C1518.647705,1339.638916 1520.816406,1340.494995 1523.602417,1342.359131 
	C1520.556274,1346.062012 1518.115356,1345.109253 1516.627441,1339.827393 
z"/>
<path fill="#784691" opacity="1.000000" stroke="none" 
	d="
M5552.840820,4699.479004 
	C5555.092285,4694.089355 5558.852051,4688.643066 5563.603027,4682.487793 
	C5566.227539,4694.338867 5565.721680,4695.209961 5552.840820,4699.479004 
z"/>
<path fill="#784691" opacity="1.000000" stroke="none" 
	d="
M5579.008789,4664.924805 
	C5580.550781,4660.078125 5583.621582,4655.617188 5587.641113,4650.477539 
	C5591.266113,4662.289062 5591.120117,4662.570801 5579.008789,4664.924805 
z"/>
<path fill="#784691" opacity="1.000000" stroke="none" 
	d="
M5566.991699,4680.915039 
	C5568.544922,4676.077637 5571.626953,4671.627930 5575.653320,4666.495117 
	C5579.259766,4678.301270 5579.111816,4678.585449 5566.991699,4680.915039 
z"/>
<path fill="#784691" opacity="1.000000" stroke="none" 
	d="
M5540.296875,4715.314453 
	C5542.298340,4710.550781 5545.743652,4705.562500 5550.341797,4699.958984 
	C5551.773438,4706.779297 5550.229980,4713.085449 5540.296875,4715.314453 
z"/>
<path fill="#784691" opacity="1.000000" stroke="none" 
	d="
M5590.829590,4648.826172 
	C5592.054199,4644.560547 5594.708496,4640.542969 5598.448242,4635.957031 
	C5599.251953,4641.089844 5601.230469,4647.992676 5590.829590,4648.826172 
z"/>
</svg>